<svg width="64" height="64" viewBox="0 0 64 64" fill="none" xmlns="http://www.w3.org/2000/svg">
  <!-- Gradient Definition -->
  <defs>
    <linearGradient id="logoGradient" x1="0%" y1="0%" x2="100%" y2="100%">
      <stop offset="0%" style="stop-color:#06b6d4;stop-opacity:1" />
      <stop offset="100%" style="stop-color:#0891b2;stop-opacity:1" />
    </linearGradient>
    <linearGradient id="pinGradient" x1="0%" y1="0%" x2="0%" y2="100%">
      <stop offset="0%" style="stop-color:#ef4444;stop-opacity:1" />
      <stop offset="100%" style="stop-color:#dc2626;stop-opacity:1" />
    </linearGradient>
  </defs>
  
  <!-- Background Circle -->
  <circle cx="32" cy="32" r="30" fill="url(#logoGradient)" />
  
  <!-- Location Pin -->
  <g transform="translate(32, 28)">
    <!-- Pin body -->
    <path
      d="M 0 -16 C -8.8 -16, -16 -8.8, -16 0 C -16 8.8, 0 24, 0 24 C 0 24, 16 8.8, 16 0 C 16 -8.8, 8.8 -16, 0 -16 Z"
      fill="url(#pinGradient)"
      stroke="#ffffff"
      stroke-width="1.5"
    />
    
    <!-- Vietnam Flag inside pin - Red background circle -->
    <circle cx="0" cy="0" r="8" fill="#da251d" />
    
    <!-- Yellow star (5-pointed) -->
    <path
      d="M 0 -6 L 1.8 -1.2 L 7 -1.2 L 2.8 2 L 4.6 6.8 L 0 3.6 L -4.6 6.8 L -2.8 2 L -7 -1.2 L -1.8 -1.2 Z"
      fill="#ffcd00"
    />
  </g>
</svg>
